<?xml version="1.0" encoding="UTF-8" standalone="no"?>
<svg
   xmlns:dc="http://purl.org/dc/elements/1.1/"
   xmlns:cc="http://creativecommons.org/ns#"
   xmlns:rdf="http://www.w3.org/1999/02/22-rdf-syntax-ns#"
   xmlns:svg="http://www.w3.org/2000/svg"
   xmlns="http://www.w3.org/2000/svg"
   xmlns:sodipodi="http://sodipodi.sourceforge.net/DTD/sodipodi-0.dtd"
   xmlns:inkscape="http://www.inkscape.org/namespaces/inkscape"
   style="enable-background:new"
   height="512"
   viewBox="0 0 512.40002 512"
   width="512.4"
   version="1.1"
   id="svg35"
   sodipodi:docname="logo.svg"
   inkscape:version="0.92.4 5da689c313, 2019-01-14">
  <metadata
     id="metadata39">
    <rdf:RDF>
      <cc:Work
         rdf:about="">
        <dc:format>image/svg+xml</dc:format>
        <dc:type
           rdf:resource="http://purl.org/dc/dcmitype/StillImage" />
        <dc:title></dc:title>
      </cc:Work>
    </rdf:RDF>
  </metadata>
  <sodipodi:namedview
     pagecolor="#ffffff"
     bordercolor="#666666"
     borderopacity="1"
     objecttolerance="10"
     gridtolerance="10"
     guidetolerance="10"
     inkscape:pageopacity="0"
     inkscape:pageshadow="2"
     inkscape:window-width="2560"
     inkscape:window-height="1379"
     id="namedview37"
     showgrid="false"
     showborder="true"
     inkscape:showpageshadow="false"
     inkscape:zoom="1.4794259"
     inkscape:cx="194.99384"
     inkscape:cy="258.68618"
     inkscape:window-x="0"
     inkscape:window-y="61"
     inkscape:window-maximized="0"
     inkscape:current-layer="svg35" />
  <defs
     id="defs7">
    <linearGradient
       id="a"
       y2="494"
       gradientUnits="userSpaceOnUse"
       x2="256"
       gradientTransform="matrix(1 0 0 1.076 0 -19.36)"
       y1="18"
       x1="256">
      <stop
         style="stop-color:#eaeaea"
         offset="0"
         id="stop2" />
      <stop
         style="stop-color:#f4f4f4"
         offset="1"
         id="stop4" />
    </linearGradient>
  </defs>
  <path
     d="m-208.3 605.6c-7.842 0-14.55 5.029-17.32 12.19-0.0612-0.00067-0.1208 0-0.1823 0-7.088 0-12.83 6.002-12.83 13.41 0 7.404 5.746 13.41 12.83 13.41h17.5 16.33c5.155 0 9.333-4.365 9.333-9.75 0-4.543-2.974-8.363-7-9.445 0.001-0.1029 0-0.2015 0-0.3047 0-10.77-8.357-19.5-18.67-19.5z"
     style="stroke-width:4;color:#000000;stroke:#ccc;enable-background:accumulate;display:none;fill:#fff"
     id="path19" />
  <path
     style="stroke-width:4;color:#000000;stroke:#ccc;enable-background:accumulate;display:none;fill:none"
     d="m288.9 828.1c-6.349 0-11.78 4.072-14.02 9.867-0.0496-0.00055-0.0978 0-0.1476 0-5.738 0-10.39 4.86-10.39 10.85 0 5.995 4.652 10.85 10.39 10.85h14.17 13.22c4.173 0 7.557-3.534 7.557-7.894 0-3.678-2.408-6.771-5.667-7.647 0.001-0.0833 0-0.1632 0-0.2467 0-8.719-6.766-15.79-15.11-15.79z"
     id="path21" />
  <g
     style="display:none"
     transform="translate(0 -558.4)"
     id="g33">
    <path
       d="m166.1 576.4h179.9c145.3 0 166.1 20.74 166.1 165.9v144.2c0 145.2-20.76 165.9-166.1 165.9h-179.9c-145.3 0-166.1-20-166.1-165.5v-144.2c0-145.2 20.76-165.9 166.1-165.9z"
       style="stroke:#00f;fill:#00f;display:inline;fill-opacity:.08118"
       id="path23" />
    <circle
       style="stroke-width:.8333;fill-opacity:.08118;color:#000000;stroke:#00f;enable-background:accumulate;display:inline;fill:#00f"
       cx="256"
       transform="matrix(1.2 0 0 1.2 -51.2 528.8)"
       cy="238"
       r="120"
       id="circle25" />
    <rect
       style="stroke-linejoin:round;fill-opacity:.08118;color:#000000;stroke:#00f;stroke-linecap:round;enable-background:accumulate;display:inline;fill:#00f"
       height="272"
       width="272"
       y="678.4"
       x="120"
       id="rect27" />
    <rect
       style="stroke-linejoin:round;fill-opacity:.08118;color:#000000;stroke:#00f;stroke-linecap:round;enable-background:accumulate;display:inline;fill:#00f"
       height="240"
       width="304"
       y="694.4"
       x="104"
       id="rect29" />
    <rect
       style="stroke-linejoin:round;fill-opacity:.08118;color:#000000;stroke:#00f;stroke-linecap:round;enable-background:accumulate;display:inline;fill:#00f"
       height="304"
       width="240"
       y="662.4"
       x="136"
       id="rect31" />
  </g>
  <g
     id="g864"
     transform="matrix(8.639084,0,0,8.639084,-999.02999,-1912.7012)">
    <path
       sodipodi:nodetypes="cccccccccccccc"
       inkscape:connector-curvature="0"
       d="m 146.20367,254.67146 c -0.34705,0.31606 -0.88156,0.30239 -1.212,-0.031 l -3.011,-3.017 c -0.82749,-0.82933 0.41651,-2.07033 1.244,-1.241 l 2.42,2.425 4.315,-3.905 0.824,-0.745 2.589,-2.54 c 0.168,-0.152 0.553,-0.401 0.764,-0.401 0.80307,10e-4 1.18377,0.99039 0.589,1.53 l -2.852,2.794 -0.785,0.71 -4.885,4.42 z"
       id="path2"
       style="fill:#f55a47;fill-opacity:1;fill-rule:evenodd" />
    <path
       inkscape:connector-curvature="0"
       d="m 160.89067,242.40446 c -2.125,-6.745 -8.514,-11.442 -15.592,-11.442 -7.411,0 -13.872,4.965 -15.77,12.096 -5.213,0.53 -9.273,5.009 -9.273,10.269 a 10.25,10.25 0 0 0 3.025,7.296 10.256,10.256 0 0 0 7.296,3.026 h 11.069 c 4.97,0 11.137,7.367 11.205,7.414 0.04,0.028 0.086,0.04 0.137,0.04 0.153,0.016 0.238,-0.101 0.238,-0.23 a 0.23,0.23 0 0 0 -0.073,-0.17 c -1.582,-2.766 -2.738,-4.792 -4.32,-7.56 -0.342,-0.597 -0.634,-1.261 -1.041,-1.818 -1.317,-1.806 -4.48,-1.591 -6.663,-1.591 h -10.552 a 6.414,6.414 0 0 1 -6.407,-6.407 c 0,-3.38 2.789,-6.343 5.968,-6.343 h 0.083 l 0.775,-0.014 c 1.022,-0.03 1.924,-0.891 2.048,-1.643 0.998,-6.056 6.15,-10.451 12.254,-10.451 5.833,0 10.946,4.138 12.156,9.839 0.19,0.897 1.016,1.549 1.984,1.549 0,0 0.164,-0.01 0.177,-0.008 3.754,0 6.808,3.022 6.808,6.737 a 6.748,6.748 0 0 1 -6.74,6.74 h -9.474 a 0.232,0.232 0 0 0 -0.201,0.347 l 1.974,3.452 a 0.235,0.235 0 0 0 0.202,0.117 h 7.499 c 5.875,0 10.655,-4.78 10.655,-10.656 0,-5.454 -4.05,-9.98 -9.447,-10.59"
       id="path4"
       style="fill:#f55a47;fill-opacity:1;fill-rule:evenodd" />
    <path
       inkscape:connector-curvature="0"
       d="m 155.71067,250.17546 -0.04,-0.125 a 9.406,9.406 0 0 0 -0.104,-0.323 10.51,10.51 0 0 0 -0.61,-1.42 l -1.726,1.728 c 0.057,0.143 0.112,0.288 0.167,0.454 0.121,0.367 0.222,0.758 0.301,1.162 0.097,0.527 0.144,1.026 0.144,1.524 a 8.506,8.506 0 0 1 -1.333,4.577 l -0.282,0.442 h 2.686 l 0.08,-0.158 a 10.72,10.72 0 0 0 1.15,-4.861 c 0,-0.994 -0.146,-2.003 -0.433,-2.998 m -4.65,-6.172 c -0.092,-0.057 -0.186,-0.11 -0.28,-0.164 l -0.18,-0.104 a 10.784,10.784 0 0 0 -5.305,-1.41 c -5.98,0 -10.845,4.867 -10.845,10.847 0,1.704 0.388,3.34 1.152,4.86 l 0.08,0.159 h 2.684 l -0.28,-0.442 a 8.507,8.507 0 0 1 -1.337,-4.577 c 0,-4.713 3.834,-8.547 8.546,-8.547 1.52,0 3.1,0.452 4.452,1.27 0.313,0.19 0.605,0.41 0.888,0.64 l 1.631,-1.63 c -0.378,-0.32 -0.775,-0.627 -1.207,-0.901"
       id="path6"
       style="fill:#f55a47;fill-opacity:1;fill-rule:evenodd" />
  </g>
</svg>
