<svg height="41" viewBox="0 0 226 41" width="226" xmlns="http://www.w3.org/2000/svg"><g fill="#fff" fill-rule="evenodd"><path d="m69.92 10.674-5.014 11.813h10.027zm-6.686 15.8-2.544 6.002h-4.672l11.736-26.588h4.596l11.623 26.588h-4.787l-2.544-6.001h-13.409zm37.539-4.633c0-3.646-2.394-6.191-5.812-6.191-3.456 0-5.85 2.583-5.887 6.191.038 3.646 2.393 6.23 5.887 6.23 3.418 0 5.812-2.584 5.812-6.23zm4.33 8.661c0 5.81-4.14 9.457-10.483 9.457-3.153 0-5.926-.988-8.395-2.659l1.86-3.152c1.9 1.405 3.876 2.203 6.345 2.203 3.836 0 6.343-2.241 6.343-5.736v-2.544c-1.368 2.202-3.646 3.418-6.685 3.418-5.47 0-9.116-3.95-9.116-9.762 0-5.698 3.608-9.571 8.964-9.61 3.115-.038 5.432 1.216 6.837 3.419v-3.266h4.33zm19.673-9.648c-.151-3.267-2.317-5.242-5.621-5.242-3.191 0-5.432 2.014-5.926 5.242zm3.799 3.19h-15.27c.684 3.114 3.077 5.052 6.268 5.052 2.203 0 4.216-.835 5.697-2.355l2.316 2.469c-1.974 2.165-4.861 3.418-8.355 3.418-6.23 0-10.332-4.14-10.332-10.217 0-6.115 4.216-10.255 10.218-10.293 7.103 0 9.989 4.633 9.458 11.926zm23.509-4.14v12.573h-4.368v-11.358c0-3.038-1.823-4.9-4.862-4.9-3.342.039-5.43 2.355-5.735 5.508v10.75h-4.368v-20.207h4.368v3.874c1.444-2.811 4.026-4.026 7.445-4.026 4.71 0 7.52 2.963 7.52 7.786m20.357 2.545c0-3.912-2.545-6.647-6.19-6.647-3.648 0-6.193 2.772-6.23 6.647.037 3.836 2.545 6.57 6.23 6.57 3.645 0 6.19-2.734 6.19-6.57zm4.368 10.027h-4.368v-3.456c-1.444 2.355-3.875 3.646-7.103 3.646-5.81 0-9.685-4.215-9.685-10.37 0-6.077 3.912-10.217 9.61-10.217 3.266 0 5.697 1.33 7.178 3.685v-11.471h4.368zm9.919-16.18c1.368-2.735 3.8-4.178 6.99-4.178v4.178c-4.065-.228-6.648 2.164-6.99 5.62v10.56h-4.368v-20.206h4.368zm11.074 16.18h4.33v-20.206h-4.33zm4.901-25.981c0 1.521-1.102 2.622-2.545 2.622-1.444 0-2.545-1.101-2.545-2.622 0-1.556 1.101-2.658 2.545-2.658 1.443 0 2.545 1.102 2.545 2.658zm17.432 5.775h4.786l-6.495 9.837 6.951 10.369h-5.014l-4.823-7.406-5.166 7.406h-4.862l7.14-10.37-6.646-9.836h5.013l4.521 6.912zm-193.832 11.656a.876.876 0 0 1 -1.212-.031l-3.011-3.017a.878.878 0 1 1 1.244-1.241l2.42 2.425 4.315-3.905.824-.745 2.589-2.54c.168-.152.553-.401.764-.401a.879.879 0 0 1 .589 1.53l-2.852 2.794-.785.71-4.885 4.42z"/><path d="m40.99 11.659c-2.125-6.745-8.514-11.442-15.592-11.442-7.411 0-13.872 4.965-15.77 12.096-5.213.53-9.273 5.009-9.273 10.269a10.25 10.25 0 0 0 3.025 7.296 10.256 10.256 0 0 0 7.296 3.026h11.069c4.97 0 11.137 7.367 11.205 7.414.04.028.086.04.137.04.153.016.238-.101.238-.23a.23.23 0 0 0 -.073-.17c-1.582-2.766-2.738-4.792-4.32-7.56-.342-.597-.634-1.261-1.041-1.818-1.317-1.806-4.48-1.591-6.663-1.591h-10.552a6.414 6.414 0 0 1 -6.407-6.407c0-3.38 2.789-6.343 5.968-6.343h.083l.775-.014c1.022-.03 1.924-.891 2.048-1.643.998-6.056 6.15-10.451 12.254-10.451 5.833 0 10.946 4.138 12.156 9.839.19.897 1.016 1.549 1.984 1.549 0 0 .164-.01.177-.008 3.754 0 6.808 3.022 6.808 6.737a6.748 6.748 0 0 1 -6.74 6.74h-9.474a.232.232 0 0 0 -.201.347l1.974 3.452a.235.235 0 0 0 .202.117h7.499c5.875 0 10.655-4.78 10.655-10.656 0-5.454-4.05-9.98-9.447-10.59"/><path d="m35.81 19.43-.04-.125a9.406 9.406 0 0 0 -.104-.323 10.51 10.51 0 0 0 -.61-1.42l-1.726 1.728c.057.143.112.288.167.454.121.367.222.758.301 1.162.097.527.144 1.026.144 1.524a8.506 8.506 0 0 1 -1.333 4.577l-.282.442h2.686l.08-.158a10.72 10.72 0 0 0 1.15-4.861c0-.994-.146-2.003-.433-2.998m-4.65-6.172c-.092-.057-.186-.11-.28-.164l-.18-.104a10.784 10.784 0 0 0 -5.305-1.41c-5.98 0-10.845 4.867-10.845 10.847 0 1.704.388 3.34 1.152 4.86l.08.159h2.684l-.28-.442a8.507 8.507 0 0 1 -1.337-4.577c0-4.713 3.834-8.547 8.546-8.547 1.52 0 3.1.452 4.452 1.27.313.19.605.41.888.64l1.631-1.63c-.378-.32-.775-.627-1.207-.901"/></g></svg>